<?xml version="1.0" encoding="UTF-8" standalone="no"?>
<!DOCTYPE svg PUBLIC "-//W3C//DTD SVG 1.1//EN" "http://www.w3.org/Graphics/SVG/1.1/DTD/svg11.dtd">
<svg width="100%" height="100%" viewBox="0 0 194 55" version="1.1" xmlns="http://www.w3.org/2000/svg" xmlns:xlink="http://www.w3.org/1999/xlink" xml:space="preserve" xmlns:serif="http://www.serif.com/" style="fill-rule:evenodd;clip-rule:evenodd;stroke-linecap:round;stroke-linejoin:round;stroke-miterlimit:1.5;">
    <g transform="matrix(1.66667,0,0,1.66667,-1950.4,-2310.07)">
        <g transform="matrix(1,0,0,1,148.799,-11.9148)">
            <path d="M1039.23,1408.68C1039.2,1409.62 1032.31,1411.48 1032.31,1415.95C1032.31,1420.52 1037.72,1419.37 1040.48,1418.45" style="fill:none;stroke:black;stroke-width:2.74px;"/>
        </g>
        <g transform="matrix(1,0,0,1,148.799,-11.9148)">
            <path d="M1038.84,1401.18C1038.47,1397.35 1028.36,1403.41 1027.4,1404.53C1018.45,1414.98 1023.03,1429.12 1037.32,1429.12C1055.87,1429.12 1065.83,1391.72 1038.79,1400.73" style="fill:none;stroke:black;stroke-width:2.74px;"/>
        </g>
        <g transform="matrix(1,0,0,1,148.799,-11.9148)">
            <path d="M1063.95,1407.16C1066.27,1406.5 1067.68,1404.75 1070.01,1404.11C1078.74,1401.73 1071.1,1413.26 1068.75,1415.08C1068.08,1415.59 1057.39,1420.6 1059.04,1422.25C1061.2,1424.4 1070.35,1424.36 1073.39,1424.36" style="fill:none;stroke:black;stroke-width:2.74px;"/>
        </g>
        <g transform="matrix(1,0,0,1,148.799,-11.9148)">
            <path d="M1089.64,1407.23C1083.56,1402.61 1076.08,1421.71 1084.24,1423.07C1091.92,1424.35 1100.57,1407 1092.37,1404.95" style="fill:none;stroke:black;stroke-width:2.74px;"/>
        </g>
        <g transform="matrix(1,0,0,1,148.799,-11.9148)">
            <path d="M1102.61,1409.86C1103.6,1407.63 1113.26,1406.01 1113.26,1410.19C1113.26,1414.83 1094.34,1421.46 1104.6,1423.51C1106.79,1423.95 1108.74,1424.76 1110.93,1425.2" style="fill:none;stroke:black;stroke-width:2.74px;"/>
        </g>
        <g transform="matrix(1,0,0,1,148.799,-11.9148)">
            <path d="M1128.18,1406.33C1125.55,1402.55 1121.59,1414.46 1123.01,1417.3C1124.55,1420.38 1130.18,1416.11 1132.03,1415.5" style="fill:none;stroke:black;stroke-width:2.74px;"/>
        </g>
        <g transform="matrix(1,0,0,1,148.799,-11.9148)">
            <path d="M1130.08,1413.66C1128.26,1410.64 1127.94,1421.59 1127.38,1424.36" style="fill:none;stroke:black;stroke-width:2.74px;"/>
        </g>
        <g transform="matrix(1,0,0,1,148.799,-11.9148)">
            <path d="M1135.89,1424.76C1135.41,1425.08 1135.08,1424.86 1134.65,1425.28" style="fill:none;stroke:black;stroke-width:2.74px;"/>
        </g>
    </g>
</svg>
