<?xml version="1.0" encoding="UTF-8" standalone="no"?>
<!DOCTYPE svg PUBLIC "-//W3C//DTD SVG 1.1//EN" "http://www.w3.org/Graphics/SVG/1.1/DTD/svg11.dtd">
<svg width="100%" height="100%" viewBox="0 0 121 104" version="1.1" xmlns="http://www.w3.org/2000/svg" xmlns:xlink="http://www.w3.org/1999/xlink" xml:space="preserve" xmlns:serif="http://www.serif.com/" style="fill-rule:evenodd;clip-rule:evenodd;stroke-linecap:round;stroke-linejoin:round;stroke-miterlimit:1.5;">
    <g transform="matrix(1.66667,0,0,1.66667,-4868.22,-1620.66)">
        <g transform="matrix(1,0,0,0.490464,94.5524,851.968)">
            <g transform="matrix(1,0,0,2.03888,-94.5524,-1737.06)">
                <path d="M2928.51,985.33C2931.85,984.656 2935.5,981.658 2938.35,979.761" style="fill:none;stroke:black;stroke-width:6.6px;"/>
            </g>
        </g>
        <g transform="matrix(1,0,0,0.490464,94.5524,851.968)">
            <g transform="matrix(1,0,0,2.03888,-94.5524,-1737.06)">
                <path d="M2927.55,1001.51C2931.04,996.886 2936.76,994.635 2941.54,991.668C2949.64,986.639 2957.42,980.985 2965.36,975.695" style="fill:none;stroke:black;stroke-width:6.6px;"/>
            </g>
        </g>
        <g transform="matrix(1,0,0,0.490464,94.5524,851.968)">
            <g transform="matrix(1,0,0,2.03888,-94.5524,-1737.06)">
                <path d="M2924.23,1025.05C2930.82,1018.06 2939.15,1012.82 2946.77,1007.06C2960.76,996.49 2974.9,986.313 2990.04,977.438" style="fill:none;stroke:black;stroke-width:6.6px;"/>
            </g>
        </g>
        <g transform="matrix(1,0,0,0.490464,94.5524,851.968)">
            <g transform="matrix(1,0,0,2.03888,-94.5524,-1737.06)">
                <path d="M2947.76,1031.57C2957.69,1025.06 2966.65,1019.05 2977.84,1014.32" style="fill:none;stroke:black;stroke-width:5.35px;"/>
            </g>
        </g>
    </g>
</svg>
