<?xml version="1.0" encoding="UTF-8" standalone="no"?>
<!DOCTYPE svg PUBLIC "-//W3C//DTD SVG 1.1//EN" "http://www.w3.org/Graphics/SVG/1.1/DTD/svg11.dtd">
<svg width="100%" height="100%" viewBox="0 0 297 249" version="1.1" xmlns="http://www.w3.org/2000/svg" xmlns:xlink="http://www.w3.org/1999/xlink" xml:space="preserve" xmlns:serif="http://www.serif.com/" style="fill-rule:evenodd;clip-rule:evenodd;stroke-linecap:round;stroke-linejoin:round;stroke-miterlimit:1.5;">
    <g transform="matrix(1.66667,0,0,1.66667,-857.79,-651.852)">
        <g transform="matrix(0.746785,0,0,0.683982,215.001,211.335)">
            <path d="M430.984,276.48C439.307,263.837 426.984,336.955 426.165,342.549C419.884,385.469 417.07,428.581 409.926,471.445" style="fill:none;stroke:black;stroke-width:18.02px;"/>
        </g>
        <g transform="matrix(0.746785,0,0,0.683982,215.001,211.335)">
            <path d="M416.693,376.776C411.513,386.68 497.633,380.331 513.449,378.072" style="fill:none;stroke:black;stroke-width:18.02px;"/>
        </g>
        <g transform="matrix(0.746785,0,0,0.683982,215.001,211.335)">
            <path d="M519.394,300.709C523.338,279.217 521.568,316.844 521.568,320.221C521.568,354.335 521.184,389.128 514.464,422.728C512.397,433.061 500.119,460.01 505.329,470.43" style="fill:none;stroke:black;stroke-width:18.02px;"/>
        </g>
        <g transform="matrix(0.746785,0,0,0.683982,215.001,211.335)">
            <path d="M561.388,402.098C561.339,401.957 559.659,429.386 554.046,455.206C553.226,458.975 552.726,469.82 551.001,466.37C550.547,465.462 551.001,464.34 551.001,463.325" style="fill:none;stroke:black;stroke-width:18.02px;"/>
        </g>
        <g transform="matrix(0.746785,0,0,0.683982,215.001,211.335)">
            <path d="M628.819,292.633C636.15,319.202 622.046,392.007 622.046,426.788" style="fill:none;stroke:black;stroke-width:18.02px;"/>
        </g>
        <g transform="matrix(0.746785,0,0,0.683982,215.001,211.335)">
            <path d="M617.928,467.396C617.947,467.392 617.967,467.389 617.986,467.385" style="fill:none;stroke:black;stroke-width:18.02px;"/>
        </g>
        <path d="M541.975,450.829C540.649,450.582 539.728,450.761 539.095,452.239C538.848,452.814 538.47,454.056 539.201,454.474C540.617,455.283 543.33,453.998 543.566,452.345C543.74,451.127 543.407,449.737 541.969,450.217" style="fill:none;stroke:black;stroke-width:0.52px;"/>
        <path d="M541.124,454.969C541.001,454.759 541.027,455.734 541.016,455.85C540.943,456.652 540.896,457.445 540.896,458.254C540.896,459.646 540.881,461.109 540.656,462.46C540.577,462.935 540.129,464.11 540.355,464.563C540.438,464.728 541.154,464.695 541.317,464.744C542.247,465.023 542.88,464.704 543.781,464.804C545.73,465.02 547.416,465.405 549.429,465.405C549.695,465.405 550.33,465.284 550.571,465.405C550.716,465.477 550.878,465.759 550.992,465.645C551.376,465.261 551.232,463.732 551.232,463.181" style="fill:none;stroke:black;stroke-width:0.52px;"/>
        <path d="M541.115,464.321C541,464.326 540.661,464.383 540.776,464.383C541.904,464.383 542.986,464.333 544.141,464.443C545.851,464.606 547.503,464.563 549.189,464.563C549.505,464.563 550.534,464.6 550.752,464.383" style="fill:none;stroke:black;stroke-width:0.52px;"/>
        <path d="M550.55,464.527C550.737,463.784 550.391,462.712 550.391,461.919" style="fill:none;stroke:black;stroke-width:0.52px;"/>
        <path d="M541.314,456.42C541.319,456.479 541.324,456.444 541.257,456.511" style="fill:none;stroke:black;stroke-width:0.52px;"/>
        <path d="M541.362,456.811C541.318,456.752 541.683,458.841 541.91,459.295C542.363,460.202 543.833,459.816 544.622,459.816" style="fill:none;stroke:black;stroke-width:0.52px;"/>
        <path d="M541.243,456.198C541.095,456.238 541.973,457.466 541.978,457.472C542.676,458.357 544.087,459.12 545.163,458.314" style="fill:none;stroke:black;stroke-width:0.52px;"/>
        <path d="M545.865,457.282C545.963,457.22 545.709,457.964 545.644,458.133C545.368,458.851 545.104,459.571 544.862,460.297C544.848,460.34 545.169,460.278 545.283,460.297C545.451,460.325 546.287,460.615 546.425,460.477C546.504,460.398 546.687,459.723 546.785,459.576C547.283,458.829 548.265,457.608 547.005,457.068C546.638,456.911 546.25,457.054 545.884,456.871" style="fill:none;stroke:black;stroke-width:0.52px;"/>
        <path d="M547.69,457.5C547.466,457.139 547.341,456.616 547.101,456.257C547.059,456.194 547.035,455.9 546.994,455.9C546.749,455.9 546.818,456.359 546.708,456.578" style="fill:none;stroke:black;stroke-width:0.52px;"/>
        <path d="M605.869,403.887C605.789,403.638 605.656,404.148 605.572,404.373C605.446,404.709 605.392,405.168 605.17,405.463C605.064,405.604 604.826,405.865 604.826,405.865C604.826,405.865 605.477,406.014 605.802,406.095" style="fill:none;stroke:black;stroke-width:0.52px;"/>
        <path d="M606.243,404.002C606.285,403.928 606.505,404.918 606.663,405.234C607.157,406.221 606.94,406.612 608.041,406.612" style="fill:none;stroke:black;stroke-width:0.52px;"/>
        <path d="M606.159,403.788C606.101,403.571 606.794,403.022 606.95,402.88C607.627,402.264 608.309,401.636 608.959,400.985" style="fill:none;stroke:black;stroke-width:0.52px;"/>
        <path d="M609.053,401.085C608.511,401.305 608.37,398.614 609.993,399.263C611.417,399.833 610.595,401.33 609.361,401.33" style="fill:none;stroke:black;stroke-width:0.52px;"/>
        <path d="M607.986,402.258C608.559,402.761 609.11,403.109 609.935,403.109" style="fill:none;stroke:black;stroke-width:0.52px;"/>
        <path d="M609.352,403.833C609.267,403.822 609.203,404.11 609.285,404.083C609.574,403.987 609.849,403.422 610.039,403.216C610.642,402.563 611.375,402.174 612.037,401.595C612.952,400.794 619.197,397.516 620.252,396.929C632.716,389.995 635.619,390.934 637.702,393.055" style="fill:none;stroke:black;stroke-width:0.52px;"/>
        <path d="M638.406,391.459C638.013,390.923 638.087,393.018 638.087,393.204C638.087,394.54 637.763,396.326 638.087,397.621C639.053,401.483 638.718,405.909 638.718,410.032C638.718,424.361 639.889,439.7 637.877,453.785C637.393,457.17 638.535,460.856 637.456,464.093C637.302,464.554 636.952,466.407 636.404,466.407" style="fill:none;stroke:black;stroke-width:0.52px;"/>
        <path d="M635.62,468.015C635.841,467.105 637.57,467.194 637.249,468.223C637.056,468.846 635.539,469.394 635.007,469.007C634.701,468.784 634.599,468.302 634.599,467.951C634.599,466.031 637.731,465.454 638.211,467.476C638.642,469.296 636.762,469.897 635.363,469.968C634.928,469.99 634.477,469.997 634.132,469.686C633.783,469.373 633.715,468.914 633.689,468.473C633.588,466.737 634.882,465.675 636.288,464.877C636.823,464.573 637.852,464.079 638.393,464.653C638.866,465.154 638.805,466.034 638.78,466.657C638.749,467.421 638.67,468.169 638.31,468.858C637.532,470.35 635.373,471.696 633.867,470.357C631.896,468.605 634.017,466.14 635.531,465.059C636.44,464.41 637.583,463.913 638.531,464.699C638.851,464.965 639.076,465.406 639.251,465.771C640.457,468.294 638.128,470.858 635.541,470.715C634.934,470.682 634.296,470.521 633.839,470.094C632.754,469.083 632.806,467.015 633.821,465.967C634.451,465.316 635.295,464.873 636.158,464.611C636.886,464.391 637.776,464.244 638.48,464.627C641.184,466.099 638.877,471.135 635.988,469.784C635.351,469.486 635.072,468.777 634.976,468.121C634.726,466.414 635.742,464.427 637.803,464.797C638.689,464.956 639.186,465.758 639.029,466.621C638.798,467.896 636.922,470.51 635.35,469.333C633.442,467.904 635.515,465.412 637.165,465.041C637.924,464.87 638.958,464.985 639.37,465.748C640.27,467.416 637.072,469.83 635.79,468.33C635.571,468.074 635.482,467.768 635.434,467.44C635.309,466.596 635.633,465.747 636.57,465.572C637.39,465.418 638.718,465.704 638.745,466.764C638.824,469.905 634,469.905 632.605,467.866C631.937,466.89 632.516,465.656 633.271,464.923C634.538,463.692 637.155,462.774 638.795,463.849C640.416,464.912 640.276,467.633 639.291,469.061C638.649,469.991 637.842,470.706 636.891,471.311C635.884,471.954 634.26,472.408 633.29,471.466C632.463,470.662 632.415,469.236 632.701,468.198C633.448,465.483 637.678,462.539 639.863,465.501C641.849,468.193 639.037,471.544 636.288,472.104C634.917,472.383 633.169,472.207 632.384,470.884C630.939,468.449 633.098,466.139 635.042,464.948C635.926,464.407 637.23,463.682 638.296,464.162C639.296,464.613 639.674,465.743 639.884,466.728C640.229,468.351 640.071,469.851 638.826,471.053C637.915,471.931 636.508,472.68 635.307,471.878C634.56,471.379 633.919,470.763 633.448,469.997C633.044,469.342 632.71,468.505 632.614,467.747C632.371,465.832 633.903,464.356 635.703,464.002C637.927,463.565 640.537,464.409 641.262,466.802C641.84,468.709 640.713,470.253 638.999,471C636.59,472.049 632.41,471.877 631.217,469.06C630.447,467.242 631.7,465.502 633.082,464.42C635.041,462.886 637.726,462.217 639.549,464.357C639.796,464.647 640.056,465.086 640.227,465.426C640.853,466.669 640.376,468.287 639.528,469.3C638.876,470.079 638.123,470.817 637.172,471.214C635.044,472.101 631.409,471.412 630.658,468.909C630.19,467.346 631.318,466.091 632.466,465.21C634.84,463.39 640.082,461.37 641.481,465.331C641.676,465.882 641.792,466.522 641.747,467.107C641.41,471.419 636.32,471.693 633.084,471.036C631.708,470.756 629.65,470.121 629.382,468.473C629.193,467.313 629.841,466.219 630.521,465.34C632.042,463.374 634.808,461.191 637.493,461.602C639.536,461.914 640.853,464.242 641.514,465.964C642.3,468.012 641.261,469.432 639.481,470.403C637.626,471.415 635.34,471.907 633.226,471.853C631.729,471.816 629.935,471.302 629.453,469.703C628.874,467.779 630.67,465.598 631.855,464.298C633.842,462.117 636.66,460.526 639.536,461.996C640.373,462.424 641.162,462.913 641.877,463.524C642.698,464.226 643.505,465.094 643.927,466.108C644.089,466.496 644.208,466.916 644.236,467.337C644.479,470.969 640.091,471.848 637.354,472.047C636.535,472.106 635.713,472.132 634.892,472.161C633.406,472.214 631.428,472.13 630.414,470.858C628.742,468.759 630.855,465.299 632.399,463.811C634.001,462.268 636.46,461.28 638.614,462.285C639.624,462.757 640.42,463.607 641.139,464.434C641.825,465.224 642.916,466.409 642.945,467.547C642.977,468.818 641.667,469.75 640.673,470.292C639.946,470.689 639.549,470.869 638.769,471.175C636.685,471.993 632.962,472.566 631.732,470.11C630.2,467.053 632.642,463.198 635.469,461.958C637.295,461.157 639.796,461.01 641.13,462.777C643.537,465.967 639.247,468.954 636.787,470.11C636.094,470.436 635.421,470.698 634.686,470.893C633.304,471.26 631.308,471.524 630.405,470.105C629.368,468.473 630.146,465.99 630.957,464.439C631.616,463.179 632.476,461.928 633.725,461.192C636.657,459.463 640.557,460.867 642.203,463.744C642.457,464.189 642.686,464.703 642.788,465.208C642.92,465.865 643.042,466.564 642.874,467.227C642.317,469.427 639.37,470.8 637.57,471.676C635.145,472.857 631.644,473.868 629.803,471.129C628.37,468.998 629.67,465.944 631.832,464.903C635.065,463.347 640.543,464.594 641.359,468.534C641.959,471.427 638.756,473.708 636.292,474.293C635.107,474.575 633.545,474.68 632.652,473.671C631.608,472.492 632.18,470.63 633.179,469.633C633.573,469.239 634.056,468.851 634.546,468.583C636.652,467.432 640.851,466.459 641.564,469.767C641.858,471.131 640.906,472.182 639.805,472.835C637.798,474.027 635.569,473.655 633.618,472.602C632.714,472.114 631.224,471.445 631.866,470.183C631.981,469.957 632.299,469.492 632.408,469.327" style="fill:none;stroke:black;stroke-width:0.52px;"/>
    </g>
</svg>
