<?xml version="1.0" encoding="UTF-8" standalone="no"?>
<!DOCTYPE svg PUBLIC "-//W3C//DTD SVG 1.1//EN" "http://www.w3.org/Graphics/SVG/1.1/DTD/svg11.dtd">
<svg width="100%" height="100%" viewBox="0 0 109 105" version="1.1" xmlns="http://www.w3.org/2000/svg" xmlns:xlink="http://www.w3.org/1999/xlink" xml:space="preserve" xmlns:serif="http://www.serif.com/" style="fill-rule:evenodd;clip-rule:evenodd;stroke-linecap:round;stroke-linejoin:round;stroke-miterlimit:1.5;">
    <g transform="matrix(1.66667,0,0,1.66667,-4535.54,-1781.53)">
        <g transform="matrix(1,0,0,0.490464,94.5524,851.968)">
            <g transform="matrix(1,0,0,2.03888,-94.5524,-1737.06)">
                <path d="M2752.3,1088.54C2750.44,1087.67 2746.25,1091.92 2745.33,1092.93C2741.24,1097.43 2740.62,1101.56 2742.91,1107.05C2743.47,1108.4 2744.1,1110.56 2745.53,1111.29C2747.56,1112.31 2750.62,1110.95 2752.59,1110.48C2759.57,1108.84 2764.17,1102.87 2763.49,1095.35C2763.14,1091.55 2756.34,1087.34 2753,1088.29" style="fill:none;stroke:black;stroke-width:5.35px;"/>
            </g>
        </g>
        <g transform="matrix(1,0,0,0.490464,94.5524,851.968)">
            <g transform="matrix(1,0,0,2.03888,-94.5524,-1737.06)">
                <path d="M2770.84,1082.47C2771.2,1082.37 2769.71,1082.74 2769.74,1082.64C2769.93,1082.09 2772.18,1080.46 2772.57,1081.43C2773.2,1082.98 2769.64,1082.59 2771.16,1081.83" style="fill:none;stroke:black;stroke-width:5.35px;"/>
            </g>
        </g>
        <g transform="matrix(1,0,0,0.490464,94.5524,851.968)">
            <g transform="matrix(1,0,0,2.03888,-194.242,-1739.35)">
                <path d="M2846.85,1072.75C2846.04,1074.14 2840.9,1073.07 2839.78,1072.97C2837.17,1072.73 2834.84,1074.1 2832.38,1074.59C2830.59,1074.95 2828.76,1074.25 2827.05,1074.59C2825.96,1074.81 2824.83,1075.94 2824.51,1076.9C2822.22,1083.76 2825.43,1093.83 2825.43,1100.97C2825.43,1109.15 2823.43,1119.81 2825.43,1127.82C2825.78,1129.2 2831.72,1129.2 2832.61,1129.2C2839.41,1129.2 2846.07,1128.35 2852.97,1128.97C2856.29,1129.27 2859.66,1128.65 2862.92,1128.97C2866.78,1129.36 2871.65,1130.61 2875.42,1129.67C2877.87,1129.05 2880.47,1131.14 2882.13,1127.82C2884.16,1123.75 2883.52,1116.48 2883.52,1112.08C2883.52,1108.21 2882.59,1104.39 2882.59,1100.51C2882.59,1093.86 2882.13,1087.28 2882.13,1080.61C2882.13,1078.87 2882.6,1075.12 2880.97,1073.9C2877.9,1071.6 2874.83,1073.66 2871.48,1073.66C2868.39,1073.66 2864.7,1075.18 2861.76,1074.59C2857.89,1073.82 2853.93,1073.14 2849.96,1072.74C2847.93,1072.54 2846.01,1073.66 2844.18,1072.74" style="fill:none;stroke:black;stroke-width:5.35px;"/>
            </g>
        </g>
    </g>
</svg>
