<?xml version="1.0" encoding="UTF-8" standalone="no"?>
<!DOCTYPE svg PUBLIC "-//W3C//DTD SVG 1.1//EN" "http://www.w3.org/Graphics/SVG/1.1/DTD/svg11.dtd">
<svg width="100%" height="100%" viewBox="0 0 151 71" version="1.1" xmlns="http://www.w3.org/2000/svg" xmlns:xlink="http://www.w3.org/1999/xlink" xml:space="preserve" xmlns:serif="http://www.serif.com/" style="fill-rule:evenodd;clip-rule:evenodd;stroke-linecap:round;stroke-linejoin:round;stroke-miterlimit:1.5;">
    <g transform="matrix(1.66667,0,0,1.66667,-1077.36,-1401.43)">
        <g transform="matrix(1,0,0,1,-12.2536,-268.251)">
            <path d="M664.492,1122.42C665.036,1123.16 663.065,1124.02 663.315,1124.9C665.626,1132.98 661.639,1141.79 660.04,1149.79" style="fill:none;stroke:black;stroke-width:2.74px;"/>
        </g>
        <g transform="matrix(1,0,0,1,-12.2536,-268.251)">
            <path d="M665.046,1113.25C664.227,1111.89 664.19,1112.12 663.643,1110.48" style="fill:none;stroke:black;stroke-width:2.74px;"/>
        </g>
        <g transform="matrix(1,0,0,1,-12.2536,-268.251)">
            <path d="M679.697,1124.55C677.146,1124.72 678.854,1129.59 678.383,1132.1C677.882,1134.78 675.435,1140.01 675.435,1142.91C675.435,1143.92 676.832,1141.45 677.401,1140.62C678.29,1139.32 679.104,1137.97 680.021,1136.69C681.602,1134.48 683.863,1131.93 686.572,1131.12C694.229,1128.83 691.744,1138.93 690.83,1142.58" style="fill:none;stroke:black;stroke-width:2.74px;"/>
        </g>
        <g transform="matrix(1,0,0,1,-12.2536,-268.251)">
            <path d="M715.485,1127.2C713.564,1126.46 713.714,1126.37 711.467,1126.21C696.336,1125.12 709.075,1135.85 709.552,1139.19C710.227,1143.92 701.636,1146.09 698.364,1144.88" style="fill:none;stroke:black;stroke-width:2.74px;"/>
        </g>
        <g transform="matrix(1,0,0,1,-12.2536,-268.251)">
            <path d="M723.529,1113.78C723.599,1111.75 723.462,1115.57 722.931,1117.36C720.779,1124.65 718.809,1128.45 716.053,1135.7C715.231,1137.87 714.468,1140.05 713.76,1142.26C713.452,1143.21 712.393,1145.92 713.104,1145.2C718.566,1139.74 711.451,1132.41 723.914,1130.79" style="fill:none;stroke:black;stroke-width:2.74px;"/>
        </g>
        <g transform="matrix(1,0,0,1,-12.2536,-268.251)">
            <path d="M747.156,1134.06C742.486,1134.09 737.218,1130.87 732.758,1131.78C728.492,1132.64 727.202,1139.43 729.482,1142.58C733.173,1147.68 739.189,1143.61 741.602,1139.64C741.766,1139.37 747.073,1129.69 747.171,1129.81C749.364,1132.41 744.996,1144.05 744.55,1147.17" style="fill:none;stroke:black;stroke-width:2.74px;"/>
        </g>
    </g>
</svg>
