<?xml version="1.0" encoding="UTF-8" standalone="no"?>
<!DOCTYPE svg PUBLIC "-//W3C//DTD SVG 1.1//EN" "http://www.w3.org/Graphics/SVG/1.1/DTD/svg11.dtd">
<svg width="100%" height="100%" viewBox="0 0 118 81" version="1.1" xmlns="http://www.w3.org/2000/svg" xmlns:xlink="http://www.w3.org/1999/xlink" xml:space="preserve" xmlns:serif="http://www.serif.com/" style="fill-rule:evenodd;clip-rule:evenodd;stroke-linecap:round;stroke-linejoin:round;stroke-miterlimit:1.5;">
    <g transform="matrix(1.66667,0,0,1.66667,-4867.32,-1795.75)">
        <g transform="matrix(1,0,0,0.490464,94.5524,851.968)">
            <g transform="matrix(1,0,0,2.03888,-94.5524,-1737.06)">
                <path d="M2924.78,1082.97C2924.01,1082.93 2924.64,1086.04 2924.64,1086.62C2924.64,1090.43 2925.1,1094.85 2924.47,1098.62C2923.49,1104.49 2923.6,1110.47 2923.6,1116.53C2923.6,1117.18 2922.97,1121.82 2923.08,1121.92C2923.93,1122.77 2927.74,1121.86 2928.82,1121.75C2933.33,1121.3 2937.52,1118.34 2942.38,1119.31C2945.11,1119.86 2947.8,1121.41 2950.56,1122.1C2957.09,1123.73 2965.24,1123.14 2971.95,1123.14L2982.39,1123.14C2983.58,1123.14 2984.7,1123.13 2985.87,1122.97C2986.5,1122.88 2987.78,1122.97 2987.78,1122.97C2987.78,1122.97 2987.61,1119.61 2987.61,1117.92C2987.61,1114.55 2987.63,1111.19 2987.43,1107.84C2987.06,1101.5 2986.77,1094.52 2987.26,1088.18C2987.34,1087.16 2988.92,1082.71 2988.13,1081.92C2987.64,1081.43 2982.15,1083.74 2981.52,1084.01C2978.72,1085.2 2975.44,1084.73 2972.47,1084.53C2969.28,1084.32 2966.26,1082.57 2963.08,1082.09C2955.21,1080.91 2947.5,1080.74 2939.6,1080.18C2936.24,1079.94 2932.07,1080.51 2928.82,1081.4C2927.47,1081.76 2926.2,1083.31 2924.82,1083.31" style="fill:none;stroke:black;stroke-width:5.35px;"/>
            </g>
        </g>
        <g transform="matrix(1,0,0,0.490464,94.5524,851.968)">
            <g transform="matrix(1,0,0,2.03888,-94.5524,-1737.06)">
                <path d="M2926.55,1083.61C2926.56,1083.37 2928.41,1084.67 2928.47,1084.7C2930.65,1086.01 2932.56,1087.31 2934.56,1088.88C2936.57,1090.45 2939.06,1090.86 2940.99,1092.36C2942.16,1093.26 2942.48,1094.85 2943.78,1095.66C2946.12,1097.12 2948.37,1097.43 2950.56,1099.31C2951.62,1100.22 2953.3,1100.67 2954.21,1101.57C2954.27,1101.63 2955.56,1103 2955.6,1102.96C2955.97,1102.6 2954.91,1101.97 2955.78,1101.4C2962.72,1096.77 2970.43,1094.42 2977.69,1090.79C2980.15,1089.56 2981.92,1086.64 2984.3,1085.05" style="fill:none;stroke:black;stroke-width:5.35px;"/>
            </g>
        </g>
    </g>
</svg>
