<?xml version="1.0" encoding="UTF-8" standalone="no"?>
<!DOCTYPE svg PUBLIC "-//W3C//DTD SVG 1.1//EN" "http://www.w3.org/Graphics/SVG/1.1/DTD/svg11.dtd">
<svg width="100%" height="100%" viewBox="0 0 233 57" version="1.1" xmlns="http://www.w3.org/2000/svg" xmlns:xlink="http://www.w3.org/1999/xlink" xml:space="preserve" xmlns:serif="http://www.serif.com/" style="fill-rule:evenodd;clip-rule:evenodd;stroke-linecap:round;stroke-linejoin:round;stroke-miterlimit:1.5;">
    <g transform="matrix(1.66667,0,0,1.66667,-1083.25,-1753.81)">
        <g transform="matrix(1,0,0,1,-12.2536,-268.251)">
            <path d="M666.68,1321.95C665.187,1321.41 665.701,1325.99 665.647,1326.66C665.259,1331.44 664.493,1336.21 664.265,1341C664.177,1342.84 664.225,1342.72 663.919,1344.45C663.768,1345.31 663.574,1347.92 663.574,1347.05C663.574,1342.79 668.507,1334.92 673.685,1336.07C676.714,1336.75 676.639,1340.22 676.184,1342.73C676.036,1343.54 675.082,1345.73 675.665,1345.15" style="fill:none;stroke:black;stroke-width:2.74px;"/>
        </g>
        <g transform="matrix(1,0,0,1,-12.2536,-268.251)">
            <path d="M682.237,1338.45C680.667,1338.09 680.675,1343.29 680.675,1344.28" style="fill:none;stroke:black;stroke-width:2.74px;"/>
        </g>
        <g transform="matrix(1,0,0,1,-12.2536,-268.251)">
            <path d="M682.349,1333.32C682.368,1332.91 682.229,1330.04 682.229,1330.81" style="fill:none;stroke:black;stroke-width:2.74px;"/>
        </g>
        <g transform="matrix(1,0,0,1,-12.2536,-268.251)">
            <path d="M699.255,1339.21C697.902,1338.67 696.462,1337.61 694.839,1337.89C690.34,1338.66 692.113,1349.31 696.566,1344.63C697.823,1343.31 697.703,1343.36 698.639,1341.69C699.196,1340.7 699.502,1340.23 699.502,1339.1C699.502,1338.46 699.33,1340.36 699.33,1341C699.33,1341.87 699.119,1343.09 699.33,1343.94C699.734,1345.55 701.425,1344.53 702.093,1343.76C708.051,1336.95 699.914,1321.69 691.384,1328.91C685.039,1334.28 684.168,1348.89 693.111,1352.23C696.683,1353.56 700.703,1352.23 703.821,1350.5" style="fill:none;stroke:black;stroke-width:2.74px;"/>
        </g>
        <g transform="matrix(1,0,0,1,-12.2536,-268.251)">
            <path d="M716.093,1326.03C717.263,1323.44 716.288,1332.14 716.257,1333.23C716.136,1337.61 715.912,1341.97 715.912,1346.36C715.912,1346.7 715.863,1345.66 715.912,1345.32C715.984,1344.82 716.704,1341.93 716.776,1341.69C717.35,1339.77 720.332,1336.25 722.563,1336.25C723.654,1336.25 723.946,1338.62 724.03,1339.1C724.486,1341.72 724.03,1344.19 724.03,1346.7" style="fill:none;stroke:black;stroke-width:2.74px;"/>
        </g>
        <g transform="matrix(1,0,0,1,-12.2536,-268.251)">
            <path d="M729.927,1337.58C730.167,1337.53 730.756,1344.25 730.991,1345.19C731.037,1345.38 731.645,1347.49 732.322,1347.22C733.224,1346.86 734.198,1344.07 734.567,1343.42C735.905,1341.05 737.197,1338.86 739.404,1337.2" style="fill:none;stroke:black;stroke-width:2.74px;"/>
        </g>
        <g transform="matrix(1,0,0,1,-12.2536,-268.251)">
            <path d="M744.657,1336.71C745.636,1336.45 746.033,1336.34 747.177,1336.34C747.983,1336.34 748.789,1336.35 749.595,1336.34C756.513,1336.23 749.286,1341.84 747.349,1344.11C746.737,1344.83 746.171,1345.59 745.622,1346.36C745.248,1346.88 744.303,1347.63 744.758,1348.08C745.845,1349.17 750.263,1348.55 751.84,1348.95" style="fill:none;stroke:black;stroke-width:2.74px;"/>
        </g>
        <g transform="matrix(1,0,0,1,-12.2536,-268.251)">
            <path d="M746.952,1342.85C747.144,1342.41 750.972,1343.07 752.531,1343.07" style="fill:none;stroke:black;stroke-width:2.74px;"/>
        </g>
        <g transform="matrix(1,0,0,1,-12.2536,-268.251)">
            <path d="M766.396,1337.44C766.792,1337.38 762.246,1336.07 761.168,1339.45C760.003,1343.1 768.91,1346.54 762.895,1348.43C762.347,1348.6 761.568,1348.75 760.995,1348.77C759.611,1348.84 759.692,1348.94 758.404,1348.43" style="fill:none;stroke:black;stroke-width:2.74px;"/>
        </g>
        <g transform="matrix(1,0,0,1,-12.2536,-268.251)">
            <path d="M772.305,1347.75C772.11,1347.71 772.251,1347.74 771.877,1347.74" style="fill:none;stroke:black;stroke-width:2.74px;"/>
        </g>
        <g transform="matrix(1,0,0,1,-12.2536,-268.251)">
            <path d="M787.29,1340.26C787.163,1338.76 784.059,1338.43 782.932,1338.93C779.863,1340.29 777.071,1349.43 782.414,1347.74C788.354,1345.86 788.357,1339.22 789.151,1334.26C789.406,1332.66 790.14,1331.11 790.705,1329.6C790.995,1328.83 791.742,1326.53 791.742,1327.35C791.742,1333.14 787.606,1338.62 789.151,1344.8" style="fill:none;stroke:black;stroke-width:2.74px;"/>
        </g>
        <g transform="matrix(1,0,0,1,-12.2536,-268.251)">
            <path d="M793.293,1342.35C796.164,1345.76 804.414,1339.74 798.045,1338.32C794.34,1337.5 791.109,1342.33 791.742,1345.66C792.233,1348.26 795.657,1349.12 797.787,1349.64" style="fill:none;stroke:black;stroke-width:2.74px;"/>
        </g>
    </g>
</svg>
