<?xml version="1.0" encoding="UTF-8" standalone="no"?>
<!DOCTYPE svg PUBLIC "-//W3C//DTD SVG 1.1//EN" "http://www.w3.org/Graphics/SVG/1.1/DTD/svg11.dtd">
<svg width="100%" height="100%" viewBox="0 0 262 34" version="1.1" xmlns="http://www.w3.org/2000/svg" xmlns:xlink="http://www.w3.org/1999/xlink" xml:space="preserve" xmlns:serif="http://www.serif.com/" style="fill-rule:evenodd;clip-rule:evenodd;stroke-linecap:round;stroke-linejoin:round;stroke-miterlimit:1.5;">
    <g transform="matrix(1.66667,0,0,1.66667,-1616.87,-1417.33)">
        <path d="M974.672,859.877C974.496,858.781 972.631,859.458 972.109,859.979C970.116,861.972 972.024,866.545 974.845,866.545C977.145,866.545 978.566,862.857 977.766,860.991C977.23,859.74 975.776,859.508 974.622,859.179" style="fill:none;stroke:black;stroke-width:2.33px;"/>
        <path d="M972.912,854.951C972.512,854.885 971.394,854.929 972.277,854.487" style="fill:none;stroke:black;stroke-width:2.33px;"/>
        <path d="M977.445,855.68C977.046,855.827 977.137,855.856 976.772,855.856" style="fill:none;stroke:black;stroke-width:2.33px;"/>
        <path d="M989.348,853.293C991.161,850.145 986.53,852.045 985.373,853.119C982.875,855.437 979.434,862.13 980.877,865.629C981.226,866.474 982.299,864.542 982.05,863.87C981.95,863.6 980.558,862.128 980.877,861.915C981.588,861.442 983.665,861.605 984.396,861.524" style="fill:none;stroke:black;stroke-width:2.33px;"/>
        <path d="M995.958,854.638C995.705,851.633 991.698,854.145 991.042,855.465C989.68,858.203 988.991,859.701 988.11,862.697C987.766,863.865 988.287,865.831 987.132,866.216C986.843,866.312 986.985,864.105 987.132,863.87C987.671,863.009 988.84,862.415 989.673,861.915" style="fill:none;stroke:black;stroke-width:2.33px;"/>
        <path d="M996.317,861.799C995.907,861.215 994.89,864.685 994.756,865.043C994.567,865.546 993.884,866.847 994.365,866.606C996.976,865.301 1001.76,858.507 1000.03,865.434C999.918,865.894 999.773,866.346 999.642,866.802" style="fill:none;stroke:black;stroke-width:2.33px;"/>
        <path d="M1003.22,863.922C1004.49,863.451 1006.05,863.363 1006.96,862.228C1007.96,860.975 1006.37,859.767 1005.12,860.351C1003.76,860.985 1002.02,865.054 1003.75,866.02C1004.83,866.627 1006.23,866 1007.27,865.629" style="fill:none;stroke:black;stroke-width:2.33px;"/>
        <path d="M1013.43,855.91C1013.5,855.439 1013.48,854.036 1013.33,854.487C1012.33,857.463 1011.59,860.49 1010.59,863.479C1009.99,865.263 1008.76,867.128 1009.22,868.952C1009.44,869.833 1009.85,867.25 1010.2,866.411C1011.01,864.444 1011.76,863.126 1013.91,862.697" style="fill:none;stroke:black;stroke-width:2.33px;"/>
        <path d="M1025.35,863.277C1025.72,864.081 1024.27,866.84 1024.27,867.975" style="fill:none;stroke:black;stroke-width:2.33px;"/>
        <path d="M1026.96,857.236C1027,856.874 1027.01,854.69 1027.01,855.66" style="fill:none;stroke:black;stroke-width:2.33px;"/>
        <path d="M1029.34,862.005C1029.1,862.662 1029.08,862.492 1028.77,863.283C1027.36,866.801 1034.08,860.188 1033.85,863.87C1033.81,864.599 1033.62,865.312 1033.46,866.02" style="fill:none;stroke:black;stroke-width:2.33px;"/>
        <path d="M1043.06,862.108C1043.03,861.891 1042.62,867.779 1042.65,867.779C1043.08,867.79 1043.83,865.333 1044.01,865.043C1044.87,863.68 1046.66,861.877 1048.34,861.667C1050.23,861.431 1049.52,864.891 1049.22,865.883C1049.01,866.589 1048.74,867.276 1048.51,867.975" style="fill:none;stroke:black;stroke-width:2.33px;"/>
        <path d="M1052.44,863.717C1053.38,863.49 1054.72,863.974 1055.74,863.87C1059.88,863.449 1056.06,858.465 1053.08,861.45C1049.93,864.595 1054.71,869.527 1058.28,867.388" style="fill:none;stroke:black;stroke-width:2.33px;"/>
        <path d="M1061.34,861.951C1060.9,861.82 1060.76,866.749 1061.61,867.595C1063.24,869.23 1070.01,864.052 1070.01,862.697C1070.01,861.964 1069.29,860.166 1068.25,860.547C1066.61,861.152 1065.99,865.387 1067.07,866.686C1067.99,867.79 1069.95,867.656 1071.18,867.779" style="fill:none;stroke:black;stroke-width:2.33px;"/>
        <path d="M1074.79,863.198C1074.81,863.173 1073.53,867.613 1073.53,868.366C1073.53,869.07 1074.3,867.187 1074.7,866.606C1075.45,865.518 1076.74,862.835 1078.42,862.697C1079.66,862.594 1078.32,866.037 1078.22,866.411C1078.1,866.857 1077.64,868.035 1078.03,867.779C1080.58,866.079 1083.5,860.779 1083.5,866.997" style="fill:none;stroke:black;stroke-width:2.33px;"/>
        <path d="M1102.63,855.005C1102.92,854.58 1103.05,852.992 1103.05,853.51C1103.05,857.626 1102.24,861.217 1101.29,865.238C1101.11,865.98 1099.62,870.488 1100.7,867.779" style="fill:none;stroke:black;stroke-width:2.33px;"/>
        <path d="M1098.97,854.12C1098.73,852.471 1101.19,852.621 1102.65,852.533C1106.16,852.32 1109.39,852.886 1112.82,853.315" style="fill:none;stroke:black;stroke-width:2.33px;"/>
        <path d="M1111.44,862.421C1111.55,862.466 1109.05,861.867 1108.32,862.111C1107.19,862.489 1106.38,864.621 1107.15,865.629C1110.1,869.467 1115.23,860.53 1114.19,865.238C1114.06,865.814 1114.06,866.411 1113.99,866.997" style="fill:none;stroke:black;stroke-width:2.33px;"/>
        <path d="M1123.08,853.318C1122.43,855.04 1122.11,856.88 1121.86,858.7C1121.75,859.564 1121.49,861.921 1121.49,862.869C1121.49,863.465 1121.5,864.068 1121.62,864.652C1122.82,870.663 1129.1,860.554 1124.16,860.547C1123.44,860.546 1122.69,860.768 1122.01,860.938" style="fill:none;stroke:black;stroke-width:2.3px;"/>
    </g>
</svg>
