<?xml version="1.0" encoding="UTF-8" standalone="no"?>
<!DOCTYPE svg PUBLIC "-//W3C//DTD SVG 1.1//EN" "http://www.w3.org/Graphics/SVG/1.1/DTD/svg11.dtd">
<svg width="100%" height="100%" viewBox="0 0 99 104" version="1.1" xmlns="http://www.w3.org/2000/svg" xmlns:xlink="http://www.w3.org/1999/xlink" xml:space="preserve" xmlns:serif="http://www.serif.com/" style="fill-rule:evenodd;clip-rule:evenodd;stroke-linecap:round;stroke-linejoin:round;stroke-miterlimit:1.5;">
    <g transform="matrix(1.66667,0,0,1.66667,-4717.21,-1783.97)">
        <g transform="matrix(1,0,0,0.490464,94.5524,851.968)">
            <g transform="matrix(1,0,0,2.03888,-94.5524,-1737.06)">
                <path d="M2855.51,1074.17C2849.75,1077.5 2843.27,1076.24 2837.91,1082.57C2830.34,1091.54 2831.22,1121.66 2842.63,1127.99C2850.84,1132.56 2863.59,1128.74 2871.34,1125.42C2875.31,1123.72 2878.3,1118.86 2880.77,1115.57C2897.49,1093.26 2876,1067.8 2851.2,1074" style="fill:none;stroke:black;stroke-width:5.35px;"/>
            </g>
        </g>
        <g transform="matrix(1,0,0,0.490464,94.5524,851.968)">
            <g transform="matrix(1,0,0,2.03888,-94.5524,-1737.06)">
                <path d="M2849.26,1106.8C2846.73,1120.15 2866.74,1118.05 2870.48,1108.71" style="fill:none;stroke:black;stroke-width:5.35px;"/>
            </g>
        </g>
        <g transform="matrix(1,0,0,0.490464,94.5524,851.968)">
            <g transform="matrix(1,0,0,2.03888,-94.5524,-1737.06)">
                <path d="M2852.03,1091.85C2852.07,1091.43 2852.06,1091.66 2852.06,1091.14" style="fill:none;stroke:black;stroke-width:5.35px;"/>
            </g>
        </g>
        <g transform="matrix(1,0,0,0.490464,94.5524,851.968)">
            <g transform="matrix(1,0,0,2.03888,-94.5524,-1737.06)">
                <path d="M2867.39,1089.97C2867.47,1089.14 2867.48,1089.32 2867.48,1088.57" style="fill:none;stroke:black;stroke-width:5.35px;"/>
            </g>
        </g>
    </g>
</svg>
