<?xml version="1.0" encoding="UTF-8" standalone="no"?>
<!DOCTYPE svg PUBLIC "-//W3C//DTD SVG 1.1//EN" "http://www.w3.org/Graphics/SVG/1.1/DTD/svg11.dtd">
<svg width="100%" height="100%" viewBox="0 0 135 155" version="1.1" xmlns="http://www.w3.org/2000/svg" xmlns:xlink="http://www.w3.org/1999/xlink" xml:space="preserve" xmlns:serif="http://www.serif.com/" style="fill-rule:evenodd;clip-rule:evenodd;stroke-linecap:round;stroke-linejoin:round;stroke-miterlimit:1.5;">
    <g transform="matrix(1.66667,0,0,1.66667,-4523.86,-1593.9)">
        <g transform="matrix(1,0,0,0.490464,94.5524,851.968)">
            <g transform="matrix(1,0,0,2.03888,-94.5524,-1737.06)">
                <path d="M2755.46,997.481C2755.65,998.631 2757.22,999.541 2756.18,1000.93C2754.02,1003.82 2748.89,1002.1 2747.53,999.379C2746.39,997.087 2747.51,995.154 2748.64,993.169C2749.37,991.889 2750.14,990.755 2751.52,990.064C2761.14,985.256 2767.37,998.11 2764.16,1005.81C2761.72,1011.68 2751.13,1011.99 2746.25,1009.06C2744.37,1007.93 2741.92,1003.2 2741.1,1001.15C2737.14,991.249 2744.78,979.909 2755.51,978.975C2760.51,978.54 2769.91,982.907 2773.64,986.227C2779.81,991.711 2783.53,1010.38 2775.92,1016.23C2766.86,1023.2 2756.64,1024.37 2746.2,1020.89C2739.96,1018.81 2737.89,1011.37 2736.89,1005.59C2736.19,1001.59 2734.89,998.128 2735.11,994.056C2735.72,983.127 2745.07,976.052 2754.85,974.096C2756.82,973.702 2759.24,972.607 2761.28,973.431C2774.09,978.585 2788.12,983.146 2791.85,998.056C2792.77,1001.76 2791.89,1005.93 2791.22,1009.58C2788.38,1025.2 2778.3,1035.88 2763.94,1042.18C2757.83,1044.87 2749.35,1047.89 2742.63,1045.65C2734.81,1043.05 2730.74,1037.73 2726.02,1031.32C2705.87,1003.92 2721.1,964.566 2755.29,959.015" style="fill:none;stroke:black;stroke-width:5.35px;"/>
            </g>
        </g>
    </g>
</svg>
