<?xml version="1.0" encoding="UTF-8" standalone="no"?>
<!DOCTYPE svg PUBLIC "-//W3C//DTD SVG 1.1//EN" "http://www.w3.org/Graphics/SVG/1.1/DTD/svg11.dtd">
<svg width="100%" height="100%" viewBox="0 0 105 94" version="1.1" xmlns="http://www.w3.org/2000/svg" xmlns:xlink="http://www.w3.org/1999/xlink" xml:space="preserve" xmlns:serif="http://www.serif.com/" style="fill-rule:evenodd;clip-rule:evenodd;stroke-linecap:round;stroke-linejoin:round;stroke-miterlimit:1.5;">
    <g transform="matrix(1.66667,0,0,1.66667,-4704.63,-1461.11)">
        <g transform="matrix(1,0,0,0.490464,94.5524,851.968)">
            <g transform="matrix(1,0,0,2.03888,-94.5524,-1737.06)">
                <path d="M2853.18,896.23C2853.34,897.374 2853.72,886.025 2853.9,883.582C2853.91,883.333 2854.51,880.579 2853.9,879.964" style="fill:none;stroke:black;stroke-width:6.6px;"/>
            </g>
        </g>
        <g transform="matrix(1,0,0,0.490464,94.5524,851.968)">
            <g transform="matrix(1,0,0,2.03888,-94.5524,-1737.06)">
                <path d="M2862.09,903.644C2863.47,902.407 2866.33,903.08 2867.92,903.031C2873.26,902.87 2877.07,902.858 2882.16,904.388" style="fill:none;stroke:black;stroke-width:6.6px;"/>
            </g>
        </g>
        <g transform="matrix(1,0,0,0.490464,94.5524,851.968)">
            <g transform="matrix(1,0,0,2.03888,-94.5524,-1737.06)">
                <path d="M2852.76,911.352C2853.48,910.093 2852.8,914.27 2852.54,915.696C2851.69,920.331 2850.73,924.533 2850.73,929.265" style="fill:none;stroke:black;stroke-width:6.6px;"/>
            </g>
        </g>
        <g transform="matrix(1,0,0,0.490464,94.5524,851.968)">
            <g transform="matrix(1,0,0,2.03888,-94.5524,-1737.06)">
                <path d="M2842.65,905.234C2837.16,905.671 2831.59,904.841 2826.08,904.841" style="fill:none;stroke:black;stroke-width:6.6px;"/>
            </g>
        </g>
    </g>
</svg>
