<?xml version="1.0" encoding="UTF-8" standalone="no"?>
<!DOCTYPE svg PUBLIC "-//W3C//DTD SVG 1.1//EN" "http://www.w3.org/Graphics/SVG/1.1/DTD/svg11.dtd">
<svg width="100%" height="100%" viewBox="0 0 77 89" version="1.1" xmlns="http://www.w3.org/2000/svg" xmlns:xlink="http://www.w3.org/1999/xlink" xml:space="preserve" xmlns:serif="http://www.serif.com/" style="fill-rule:evenodd;clip-rule:evenodd;stroke-linecap:round;stroke-linejoin:round;stroke-miterlimit:1.5;">
    <g transform="matrix(1.66667,0,0,1.66667,-4548.51,-1457.51)">
        <g transform="matrix(1,0,0,0.490464,94.5524,851.968)">
            <g transform="matrix(4.26632,0,0,8.69854,282.164,-7087.04)">
                <path d="M556.988,820.901C557.096,820.274 556.771,821.712 556.757,821.883C556.691,822.679 556.593,823.7 556.186,824.411C555.7,825.262 553.889,825.672 553.006,825.798C552.885,825.815 552.208,825.698 552.109,825.798C552.08,825.827 553.381,826.171 553.495,826.206C554.043,826.37 555.178,826.961 555.452,827.51C555.822,828.25 555.932,829.464 556.023,830.283C556.077,830.77 556.105,831.751 556.105,831.751C556.105,831.751 556.364,830.532 556.594,829.957C557.103,828.685 558.623,826.532 560.182,826.532C560.415,826.532 561.304,826.166 561.405,826.369C561.585,826.727 560.48,826.388 560.427,826.369C559.732,826.108 558.965,825.708 558.388,825.227C557.621,824.588 557.246,823.418 557.246,822.454C557.246,822.012 557.491,821.149 557.491,821.149C557.491,821.149 557.399,821.589 557.328,821.802C557.106,822.469 556.925,823.067 556.839,823.759C556.718,824.728 556.898,825.71 556.757,826.695C556.733,826.867 556.873,827.575 556.676,827.673C556.502,827.76 555.761,825.25 557.023,825.566C557.958,825.8 557.149,828.068 556.186,827.266C555.431,826.637 556.396,825.145 557.246,825.472C557.746,825.664 556.869,827.396 556.349,827.266C555.97,827.171 556.767,826.347 556.802,826.316C557.302,825.878 557.884,825.651 558.551,825.635C558.969,825.625 557.669,827.021 557.083,827.021" style="fill:none;stroke:black;stroke-width:1.45px;"/>
            </g>
        </g>
    </g>
</svg>
