<?xml version="1.0" encoding="UTF-8" standalone="no"?>
<!DOCTYPE svg PUBLIC "-//W3C//DTD SVG 1.1//EN" "http://www.w3.org/Graphics/SVG/1.1/DTD/svg11.dtd">
<svg width="100%" height="100%" viewBox="0 0 95 142" version="1.1" xmlns="http://www.w3.org/2000/svg" xmlns:xlink="http://www.w3.org/1999/xlink" xml:space="preserve" xmlns:serif="http://www.serif.com/" style="fill-rule:evenodd;clip-rule:evenodd;stroke-linecap:round;stroke-linejoin:round;stroke-miterlimit:1.5;">
    <g transform="matrix(1.66667,0,0,1.66667,-2016.01,-860.987)">
        <g transform="matrix(1.59684,0,0,1.59684,-722.448,-358.526)">
            <path d="M1215.81,585.763C1215.67,588.219 1215.6,590.566 1214.55,591.879C1214,592.57 1210.1,596.626 1210.47,597.367C1210.86,598.152 1212.46,598.584 1213.14,599.092" style="fill:none;stroke:black;stroke-width:1.06px;"/>
        </g>
        <g transform="matrix(1.59684,0,0,1.59684,-722.448,-358.526)">
            <path d="M1216.08,585.599C1216.13,585.401 1217.57,589.996 1217.84,591.095C1218.32,592.99 1218.48,595.773 1217.84,597.68C1217.72,598.047 1216.8,599.775 1217.21,600.189C1217.92,600.893 1220.36,600.031 1221.13,599.875" style="fill:none;stroke:black;stroke-width:1.06px;"/>
        </g>
        <g transform="matrix(1.59684,0,0,1.59684,-722.448,-358.526)">
            <path d="M1216.02,585.909C1216.84,584.68 1216.4,581.44 1216.59,579.963C1216.88,577.583 1216.6,575.131 1216.9,572.751C1217.31,569.443 1218.62,565.835 1218.62,562.56" style="fill:none;stroke:black;stroke-width:1.06px;"/>
        </g>
        <g transform="matrix(1.59684,0,0,1.59684,-722.448,-358.526)">
            <path d="M1218.91,564.922C1217.72,564.831 1219.86,565.225 1220.35,565.225C1220.88,565.225 1221.54,564.535 1221.92,564.912C1222.15,565.146 1221.92,566.977 1221.92,567.264C1221.92,571.183 1220.52,573.535 1225.52,573.535" style="fill:none;stroke:black;stroke-width:1.06px;"/>
        </g>
        <g transform="matrix(1.59684,0,0,1.59684,-722.448,-358.526)">
            <path d="M1218.39,565.028C1218.59,564.727 1215.93,564.317 1215.49,564.755C1215.35,564.898 1215.49,566.384 1215.49,566.48C1215.49,567.071 1215.71,572.35 1216.12,572.751C1216.32,572.951 1217.69,573.108 1218,573.222C1220.17,574.036 1221.75,575.728 1224.11,576.201" style="fill:none;stroke:black;stroke-width:1.06px;"/>
        </g>
        <g transform="matrix(1.59684,0,0,1.59684,-722.448,-358.526)">
            <path d="M1222.76,578.336C1224.92,576.258 1226.38,573.468 1228.5,571.34" style="fill:none;stroke:black;stroke-width:1.06px;"/>
        </g>
        <g transform="matrix(1.59684,0,0,1.59684,-722.448,-358.526)">
            <path d="M1226.23,575.009C1227.86,576.963 1230.74,580.55 1231.17,583.099C1231.27,583.7 1232.41,589.371 1232.58,589.371" style="fill:none;stroke:black;stroke-width:1.06px;"/>
        </g>
        <g transform="matrix(1.59684,0,0,1.59684,-722.448,-358.526)">
            <path d="M1231.84,597.891C1231.76,597.798 1231.82,597.837 1231.64,597.837" style="fill:none;stroke:black;stroke-width:1.06px;"/>
        </g>
        <g transform="matrix(1.59684,0,0,1.59684,-722.448,-358.526)">
            <path d="M1230.93,596.89C1230.64,597.527 1229.83,597.092 1229.44,597.994C1228.92,599.214 1229.75,601.371 1231.48,600.503C1232.7,599.892 1233.15,597.053 1231.33,597.053" style="fill:none;stroke:black;stroke-width:1.06px;"/>
        </g>
        <g transform="matrix(1.59684,0,0,1.59684,-722.448,-358.526)">
            <path d="M1244.49,596.557C1242.5,594.82 1241.38,599.045 1242.77,599.719C1244.64,600.627 1246.07,596.583 1243.4,596.583" style="fill:none;stroke:black;stroke-width:1.06px;"/>
        </g>
        <g transform="matrix(1.59684,0,0,1.59684,-722.448,-358.526)">
            <path d="M1231.45,594.415C1232.55,593.359 1230.75,597.367 1231.33,597.367C1234.65,597.367 1238.07,597.524 1241.52,597.524C1241.77,597.524 1244.39,597.729 1244.5,597.524C1244.62,597.277 1244.3,596.28 1244.34,595.956C1244.44,595.103 1245.4,593.688 1244.96,592.82C1244.49,591.874 1238.64,592.829 1237.75,592.977C1234.89,593.454 1232.92,592.138 1231.64,594.701" style="fill:none;stroke:black;stroke-width:1.06px;"/>
        </g>
        <g transform="matrix(1.59684,0,0,1.59684,-722.448,-358.526)">
            <path d="M1234.84,593.23C1235.22,592.827 1234.78,591.169 1234.93,591.095C1235.43,590.847 1240,589.897 1240.42,590.311C1240.67,590.568 1240.42,592.125 1240.42,592.506" style="fill:none;stroke:black;stroke-width:1.06px;"/>
        </g>
        <g transform="matrix(1.59684,0,0,1.59684,-722.448,-358.526)">
            <path d="M1231.95,593.96C1231.96,593.518 1229.87,593.074 1229.44,592.82C1228.36,592.172 1227.5,591.157 1226.46,590.468C1226.03,590.178 1225.52,589.214 1225.52,589.214C1225.52,589.214 1225.16,590.458 1225.05,591.095C1224.84,592.371 1225.45,594.249 1225.99,595.329C1226.63,596.598 1230.88,596.594 1232.11,597.21" style="fill:none;stroke:black;stroke-width:1.06px;"/>
        </g>
        <g transform="matrix(1.59684,0,0,1.59684,-722.448,-358.526)">
            <path d="M1218.97,562.14C1217.63,562.551 1216.3,560.157 1216.21,559.153C1215.94,555.934 1217.56,555.102 1220.4,554.817C1221.29,554.728 1222.76,554.158 1223.58,554.817C1225.7,556.507 1223.65,562.189 1220.98,562.189C1220.43,562.189 1219.92,561.744 1219.39,561.61" style="fill:none;stroke:black;stroke-width:1.06px;"/>
        </g>
        <g transform="matrix(1.59684,0,0,1.59684,-722.448,-358.526)">
            <path d="M1212.98,558.4C1213.48,557.367 1214.97,556.93 1216.21,556.118C1218.71,554.485 1220.8,552.67 1223.44,551.348" style="fill:none;stroke:black;stroke-width:1.06px;"/>
        </g>
        <g transform="matrix(1.59684,0,0,1.59684,-722.448,-358.526)">
            <path d="M1220.45,553.491C1220.94,553.615 1218.34,549.135 1217.8,548.602C1217.44,548.238 1214.14,550.244 1213.75,550.625C1213.6,550.778 1214.27,550.707 1214.33,550.914C1214.43,551.243 1214.61,552.404 1214.62,552.649C1214.68,553.59 1214.44,555.36 1215.2,556.118" style="fill:none;stroke:black;stroke-width:1.06px;"/>
        </g>
    </g>
</svg>
